<svg version="1.0" xmlns="http://www.w3.org/2000/svg"
 width="1920.000000pt" height="406.000000pt" viewBox="0 0 1920.000000 406.000000"
 preserveAspectRatio="xMidYMid meet">
<g transform="translate(0.000000,406.000000) scale(0.100000,-0.100000)"
fill="#000000" stroke="none">
<path d="M1822 4029 c-818 -79 -1513 -669 -1721 -1460 -128 -489 -71 -1000
161 -1439 432 -818 1366 -1225 2267 -989 482 127 906 442 1173 872 305 491
378 1108 197 1661 -289 880 -1154 1444 -2077 1355z m338 -49 c384 -33 733
-168 1035 -399 85 -65 247 -223 318 -311 634 -785 563 -1908 -166 -2607 -264
-253 -583 -420 -957 -501 -117 -25 -141 -27 -375 -27 -234 0 -258 2 -375 27
-774 166 -1352 744 -1518 1518 -25 117 -27 141 -27 375 0 234 2 258 27 375
161 746 701 1313 1423 1495 218 55 411 72 615 55z"/>
<path d="M1336 2498 l-686 -892 0 -283 c0 -156 3 -283 8 -283 4 1 314 385 689
856 l681 854 688 -855 c378 -470 691 -855 696 -855 4 0 8 127 8 283 l-1 282
-690 890 c-380 490 -694 891 -698 893 -5 1 -317 -399 -695 -890z"/>
<path d="M1870 2088 c-37 -14 -73 -40 -111 -77 -71 -72 -99 -140 -99 -246 0
-105 28 -174 99 -246 72 -71 141 -99 246 -99 105 0 174 28 246 99 71 72 99
141 99 246 0 105 -28 174 -99 246 -73 72 -141 99 -249 98 -53 0 -94 -7 -132
-21z"/>
<path d="M6590 2946 l0 -636 165 0 165 0 0 234 0 234 243 4 c261 5 294 11 407
68 76 38 151 120 179 195 33 86 27 217 -13 293 -36 71 -101 134 -175 172 -122
61 -138 63 -573 68 l-398 4 0 -636z m748 383 c64 -32 105 -98 99 -162 -5 -56
-27 -90 -86 -132 l-43 -30 -194 -3 -194 -3 0 175 0 176 187 0 c170 0 191 -2
231 -21z"/>
<path d="M8050 2950 l0 -630 540 0 540 0 0 100 0 100 -395 0 -395 0 0 425 0
425 390 0 390 0 0 105 0 105 -535 0 -535 0 0 -630z"/>
<path d="M5132 2959 c-166 -336 -302 -615 -302 -620 0 -6 67 -8 165 -7 l166 3
51 113 51 112 356 0 356 -1 52 -109 52 -110 160 0 c89 0 161 4 161 8 0 5 -135
282 -300 615 l-300 607 -183 0 -184 0 -301 -611z m626 92 c68 -145 121 -265
119 -267 -2 -2 -119 -3 -260 -2 l-256 3 83 180 c46 99 102 220 124 268 26 56
46 87 54 85 7 -3 68 -123 136 -267z"/>
<path d="M9292 3560 c3 -9 397 -440 403 -440 8 0 170 173 170 181 0 6 -52 68
-115 140 l-115 129 -173 0 c-106 0 -172 -4 -170 -10z"/>
<path d="M9870 2969 c-311 -330 -571 -609 -579 -620 -13 -18 -9 -19 150 -19
l164 1 212 234 212 235 213 -235 212 -235 173 0 c95 0 173 2 173 5 0 3 -131
145 -290 315 -186 199 -288 315 -283 323 4 7 123 141 265 299 142 158 258 290
258 293 0 3 -71 5 -158 5 l-157 0 -565 -601z"/>
<path d="M8490 2965 l0 -105 305 0 305 0 0 105 0 105 -305 0 -305 0 0 -105z"/>
<path d="M7584 1725 c-97 -21 -200 -79 -275 -154 -109 -109 -158 -226 -166
-397 -12 -236 68 -414 239 -534 103 -72 202 -103 338 -104 159 -1 268 39 380
140 66 60 68 69 15 100 l-46 26 -54 -51 c-66 -62 -136 -96 -230 -111 -133 -22
-284 30 -386 131 -134 134 -182 353 -118 542 110 326 512 434 746 200 l44 -43
46 32 46 31 -65 62 c-105 100 -224 146 -373 144 -44 0 -107 -7 -141 -14z"/>
<path d="M11678 1724 c-198 -47 -359 -219 -403 -429 -58 -278 45 -559 250
-680 125 -74 304 -101 445 -66 203 49 358 212 406 427 22 101 15 293 -14 374
-71 200 -209 331 -393 375 -79 18 -215 18 -291 -1z m251 -95 c73 -16 152 -61
207 -116 194 -193 188 -580 -13 -763 -214 -195 -557 -135 -688 120 -57 113
-77 284 -46 410 42 174 160 301 321 346 55 15 160 17 219 3z"/>
<path d="M14128 1724 c-200 -48 -359 -219 -404 -434 -23 -109 -15 -270 20
-376 58 -178 189 -306 371 -360 73 -22 226 -24 305 -5 203 49 358 212 406 427
22 103 15 293 -15 377 -70 197 -209 328 -393 372 -78 18 -214 18 -290 -1z
m251 -95 c168 -38 297 -178 336 -364 85 -405 -231 -728 -592 -604 -182 62
-296 242 -297 469 -1 110 14 180 57 268 86 179 297 277 496 231z"/>
<path d="M15675 1730 c-278 -56 -465 -294 -465 -589 1 -282 146 -493 400 -582
54 -19 86 -23 190 -23 170 0 258 31 389 134 l51 40 0 215 0 215 -270 0 -270 0
0 -50 0 -50 220 0 220 0 0 -134 0 -134 -37 -29 c-119 -91 -251 -127 -382 -103
-238 43 -395 240 -395 495 1 245 138 432 359 490 149 38 319 -4 431 -107 l44
-41 40 27 c22 14 40 30 40 35 0 5 -25 32 -56 60 -62 57 -172 113 -252 130 -60
12 -197 13 -257 1z"/>
<path d="M18601 1724 c-119 -32 -205 -102 -235 -192 -25 -72 -21 -168 9 -229
43 -85 118 -130 315 -187 151 -44 242 -81 282 -114 40 -34 68 -93 68 -144 -1
-242 -383 -305 -610 -101 l-53 47 -33 -38 c-19 -22 -34 -43 -34 -47 0 -4 23
-28 51 -53 146 -131 393 -170 596 -94 78 29 154 104 178 178 24 73 23 184 -3
243 -44 100 -128 152 -364 223 -84 25 -174 57 -199 70 -87 44 -124 115 -100
195 56 188 385 214 555 44 l34 -33 38 39 38 39 -38 39 c-106 109 -327 160
-495 115z"/>
<path d="M4790 1670 l0 -50 190 0 190 0 0 -535 0 -535 55 0 55 0 0 535 0 535
190 0 190 0 0 50 0 50 -435 0 -435 0 0 -50z"/>
<path d="M6030 1135 l0 -585 370 0 370 0 0 50 0 50 -315 0 -315 0 0 485 0 485
315 0 315 0 0 50 0 50 -370 0 -370 0 0 -585z"/>
<path d="M8520 1135 l0 -585 55 0 55 0 0 275 0 275 360 0 360 0 0 -275 0 -275
55 0 55 0 0 585 0 585 -55 0 -55 0 0 -260 0 -260 -360 0 -360 0 0 260 0 260
-55 0 -55 0 0 -585z"/>
<path d="M9910 1135 l0 -585 55 0 55 0 0 585 0 585 -55 0 -55 0 0 -585z"/>
<path d="M10738 1237 l-3 -484 -279 379 c-153 208 -281 378 -283 378 -1 0 -3
-42 -3 -93 l0 -94 287 -386 287 -387 53 0 53 0 0 585 0 585 -55 0 -55 0 -2
-483z"/>
<path d="M12780 1135 l0 -585 335 0 335 0 0 50 0 50 -280 0 -280 0 0 535 0
535 -55 0 -55 0 0 -585z"/>
<path d="M16660 1135 l0 -585 55 0 55 0 0 585 0 585 -55 0 -55 0 0 -585z"/>
<path d="M17220 1135 l0 -585 375 0 375 0 0 50 0 50 -320 0 -320 0 0 485 0
485 320 0 320 0 0 50 0 50 -375 0 -375 0 0 -585z"/>
<path d="M6250 1150 l0 -50 255 0 255 0 0 50 0 50 -255 0 -255 0 0 -50z"/>
<path d="M17450 1150 l0 -50 250 0 250 0 0 50 0 50 -250 0 -250 0 0 -50z"/>
</g>
</svg>
